<svg width="24" height="33" viewBox="0 0 24 33" fill="none" xmlns="http://www.w3.org/2000/svg">
<path d="M1.09391 18.6409L18.6809 32.2903C20.7534 33.9012 24 32.592 24 30.1473V2.84844C24.0005 2.30132 23.8233 1.76565 23.4895 1.30559C23.1556 0.845535 22.6794 0.480589 22.1178 0.254457C21.5562 0.0283258 20.933 -0.0494054 20.3229 0.0305724C19.7128 0.11055 19.1416 0.344847 18.6777 0.705404L1.09712 14.3548C0.752533 14.622 0.476356 14.9514 0.287128 15.321C0.0979 15.6907 0 16.0919 0 16.4979C0 16.9038 0.0979 17.3051 0.287128 17.6747C0.476356 18.0444 0.752533 18.3738 1.09712 18.6409H1.09391Z" fill="#FABF13"/>
</svg>
