<svg width="21" height="28" viewBox="0 0 21 28" fill="none" xmlns="http://www.w3.org/2000/svg">
<path d="M17.7905 15.645C16.8735 17.5035 15.631 19.355 14.3605 21.0175C13.1553 22.5848 11.8666 24.0862 10.5 25.515C9.1334 24.0862 7.8447 22.5849 6.6395 21.0175C5.369 19.355 4.1265 17.5035 3.2095 15.645C2.282 13.7672 1.75 12.0085 1.75 10.5C1.75 8.17936 2.67187 5.95376 4.31282 4.31282C5.95376 2.67187 8.17936 1.75 10.5 1.75C12.8206 1.75 15.0462 2.67187 16.6872 4.31282C18.3281 5.95376 19.25 8.17936 19.25 10.5C19.25 12.0085 18.7163 13.7672 17.7905 15.645ZM10.5 28C10.5 28 21 18.0495 21 10.5C21 7.71523 19.8938 5.04451 17.9246 3.07538C15.9555 1.10625 13.2848 0 10.5 0C7.71523 0 5.04451 1.10625 3.07538 3.07538C1.10625 5.04451 4.14964e-08 7.71523 0 10.5C0 18.0495 10.5 28 10.5 28Z" fill="#4C4C4C"/>
<path d="M10.5 14.1667C9.52754 14.1667 8.59491 13.7804 7.90727 13.0927C7.21964 12.4051 6.83333 11.4725 6.83333 10.5C6.83333 9.52754 7.21964 8.59491 7.90727 7.90727C8.59491 7.21964 9.52754 6.83333 10.5 6.83333C11.4725 6.83333 12.4051 7.21964 13.0927 7.90727C13.7804 8.59491 14.1667 9.52754 14.1667 10.5C14.1667 11.4725 13.7804 12.4051 13.0927 13.0927C12.4051 13.7804 11.4725 14.1667 10.5 14.1667ZM10.5 16C11.9587 16 13.3576 15.4205 14.3891 14.3891C15.4205 13.3576 16 11.9587 16 10.5C16 9.04131 15.4205 7.64236 14.3891 6.61091C13.3576 5.57946 11.9587 5 10.5 5C9.04131 5 7.64236 5.57946 6.61091 6.61091C5.57946 7.64236 5 9.04131 5 10.5C5 11.9587 5.57946 13.3576 6.61091 14.3891C7.64236 15.4205 9.04131 16 10.5 16Z" fill="#4C4C4C"/>
</svg>
