<svg width="27" height="29" viewBox="0 0 27 29" fill="none" xmlns="http://www.w3.org/2000/svg">
<path d="M6.16673 2.40748C6.06711 2.26984 5.94137 2.15654 5.79785 2.07512C5.65434 1.99369 5.49634 1.94599 5.33434 1.93519C5.17234 1.92439 5.01006 1.95074 4.85827 2.01248C4.70649 2.07422 4.56867 2.16994 4.45397 2.29329L2.70915 4.16918C1.89411 5.04641 1.59374 6.28794 1.9498 7.37723C3.42756 11.8859 5.83142 15.9793 8.98308 19.3539C12.125 22.739 15.9361 25.321 20.1337 26.9083C21.1479 27.2907 22.3038 26.9681 23.1205 26.0926L24.8653 24.2186C24.9802 24.0954 25.0693 23.9473 25.1268 23.7843C25.1843 23.6213 25.2088 23.447 25.1987 23.273C25.1887 23.099 25.1443 22.9293 25.0685 22.7751C24.9926 22.621 24.8872 22.4859 24.759 22.3789L20.8661 19.1274C20.7292 19.0133 20.5699 18.9342 20.4004 18.8959C20.2309 18.8576 20.0554 18.8611 19.8874 18.9063L16.1919 19.8977C15.6986 20.0301 15.1818 20.0231 14.6918 19.8773C14.2018 19.7315 13.7553 19.4519 13.3958 19.0658L9.25138 14.6126C8.89156 14.2266 8.63095 13.7471 8.49492 13.2208C8.35889 12.6945 8.35208 12.1393 8.47515 11.6093L9.39988 7.64004C9.44191 7.45951 9.44521 7.27108 9.40955 7.08898C9.37389 6.90688 9.30019 6.73585 9.19401 6.58881L6.16673 2.40748ZM3.17994 0.926699C3.47524 0.609428 3.83 0.363262 4.22066 0.204547C4.61132 0.0458317 5.02895 -0.0218007 5.44582 0.00614066C5.86268 0.034082 6.26924 0.156958 6.6385 0.366609C7.00777 0.576259 7.33128 0.867888 7.58756 1.22213L10.6148 5.40165C11.17 6.16832 11.3658 7.16698 11.1464 8.10946L10.2233 12.0787C10.1756 12.2843 10.1782 12.4997 10.2308 12.7039C10.2835 12.9081 10.3844 13.0942 10.5237 13.2441L14.6698 17.6974C14.8096 17.8473 14.9831 17.9559 15.1736 18.0124C15.364 18.069 15.5648 18.0716 15.7565 18.02L19.4503 17.0286C19.8833 16.9123 20.3353 16.9032 20.7721 17.0021C21.2088 17.101 21.6189 17.3053 21.9714 17.5995L25.8626 20.851C27.2615 22.0201 27.3897 24.2403 26.1377 25.5833L24.3928 27.4574C23.1441 28.7986 21.2778 29.3877 19.5381 28.7298C15.0852 27.047 11.0422 24.3089 7.70905 20.7187C4.36671 17.1391 1.81751 12.7973 0.250537 8.01521C-0.360319 6.14838 0.188101 4.142 1.43681 2.80078L3.18163 0.926699H3.17994Z" fill="#4C4C4C"/>
</svg>
