<svg width="244" height="4378" viewBox="0 0 244 4378" fill="none" xmlns="http://www.w3.org/2000/svg">
<g filter="url(#filter0_i_623_1086)">
<path d="M126.929 0.00504115L126.93 155.006M124.098 576.006L124.098 365.005" stroke="white" stroke-width="10"/>
</g>
<g filter="url(#filter1_i_623_1086)">
<path d="M122.912 1839L122.912 1628" stroke="white" stroke-width="10"/>
</g>
<g filter="url(#filter2_i_623_1086)">
<path d="M120.912 2687L120.912 2476" stroke="white" stroke-width="10"/>
</g>
<g filter="url(#filter3_i_623_1086)">
<path d="M119.912 3533L119.912 3322" stroke="white" stroke-width="10"/>
</g>
<g filter="url(#filter4_i_623_1086)">
<path d="M118.912 4378L118.912 4167" stroke="white" stroke-width="10"/>
</g>
<g filter="url(#filter5_i_623_1086)">
<path d="M120.096 1417L120.096 1206" stroke="white" stroke-width="10"/>
</g>
<g filter="url(#filter6_i_623_1086)">
<path d="M119.096 2265L119.096 2054" stroke="white" stroke-width="10"/>
</g>
<g filter="url(#filter7_i_623_1086)">
<path d="M117.096 3111L117.096 2900" stroke="white" stroke-width="10"/>
</g>
<g filter="url(#filter8_i_623_1086)">
<path d="M116.096 3955L116.096 3744" stroke="white" stroke-width="10"/>
</g>
<g filter="url(#filter9_i_623_1086)">
<path d="M123.904 997L123.904 786" stroke="white" stroke-width="10"/>
</g>
<g filter="url(#filter10_i_623_1086)">
<mask id="path-11-inside-1_623_1086" fill="white">
<path fill-rule="evenodd" clip-rule="evenodd" d="M122 369.984C122.79 369.998 123.581 370.006 124.375 370.006C189.891 370.006 243.002 320.757 243.002 260.006C243.002 199.254 189.891 150.006 124.375 150.006C123.581 150.006 122.79 150.013 122 150.027V155.028C122.789 155.013 123.581 155.006 124.375 155.006C187.492 155.006 238.002 202.365 238.002 260.006C238.002 317.647 187.492 365.006 124.375 365.006C123.581 365.006 122.789 364.998 122 364.983V369.984Z"/>
</mask>
<path d="M122 369.984H112V379.804L121.818 379.982L122 369.984ZM122 150.027L121.818 140.029L112 140.208V150.027H122ZM122 155.028H112V165.218L122.189 165.026L122 155.028ZM122 364.983L122.189 354.985L112 354.793V364.983H122ZM121.818 379.982C122.668 379.998 123.52 380.006 124.375 380.006V360.006C123.642 360.006 122.911 359.999 122.182 359.986L121.818 379.982ZM124.375 380.006C194.689 380.006 253.002 326.977 253.002 260.006H233.002C233.002 314.536 185.092 360.006 124.375 360.006V380.006ZM253.002 260.006C253.002 193.034 194.689 140.006 124.375 140.006V160.006C185.092 160.006 233.002 205.475 233.002 260.006H253.002ZM124.375 140.006C123.521 140.006 122.668 140.013 121.818 140.029L122.182 160.026C122.911 160.012 123.642 160.006 124.375 160.006V140.006ZM112 150.027V155.028H132V150.027H112ZM124.375 145.006C123.518 145.006 122.664 145.014 121.811 145.03L122.189 165.026C122.915 165.013 123.644 165.006 124.375 165.006V145.006ZM248.002 260.006C248.002 196.153 192.3 145.006 124.375 145.006V165.006C182.683 165.006 228.002 208.576 228.002 260.006H248.002ZM124.375 375.006C192.3 375.006 248.002 323.858 248.002 260.006H228.002C228.002 311.436 182.683 355.006 124.375 355.006V375.006ZM121.811 374.981C122.664 374.998 123.518 375.006 124.375 375.006V355.006C123.644 355.006 122.915 354.999 122.189 354.985L121.811 374.981ZM112 364.983V369.984H132V364.983H112Z" fill="white" mask="url(#path-11-inside-1_623_1086)"/>
</g>
<g filter="url(#filter11_i_623_1086)">
<mask id="path-13-inside-2_623_1086" fill="white">
<path fill-rule="evenodd" clip-rule="evenodd" d="M125.004 1632.98C124.214 1632.99 123.423 1633 122.629 1633C57.1132 1633 4.00183 1583.75 4.00183 1523C4.00183 1462.25 57.1132 1413 122.629 1413C123.423 1413 124.214 1413.01 125.004 1413.02V1418.02C124.214 1418.01 123.423 1418 122.629 1418C59.5124 1418 9.00183 1465.36 9.00183 1523C9.00183 1580.64 59.5124 1628 122.629 1628C123.423 1628 124.214 1627.99 125.004 1627.98V1632.98Z"/>
</mask>
<path d="M125.004 1632.98H135.004V1642.8L125.186 1642.98L125.004 1632.98ZM125.004 1413.02L125.186 1403.02L135.004 1403.2V1413.02H125.004ZM125.004 1418.02H135.004V1428.21L124.815 1428.02L125.004 1418.02ZM125.004 1627.98L124.815 1617.98L135.004 1617.79V1627.98H125.004ZM125.186 1642.98C124.336 1642.99 123.483 1643 122.629 1643V1623C123.362 1623 124.093 1622.99 124.822 1622.98L125.186 1642.98ZM122.629 1643C52.3148 1643 -5.99817 1589.97 -5.99817 1523H14.0018C14.0018 1577.53 61.9115 1623 122.629 1623V1643ZM-5.99817 1523C-5.99817 1456.03 52.3148 1403 122.629 1403V1423C61.9115 1423 14.0018 1468.47 14.0018 1523H-5.99817ZM122.629 1403C123.483 1403 124.336 1403.01 125.186 1403.02L124.822 1423.02C124.093 1423.01 123.362 1423 122.629 1423V1403ZM135.004 1413.02V1418.02H115.004V1413.02H135.004ZM122.629 1408C123.486 1408 124.34 1408.01 125.193 1408.02L124.815 1428.02C124.089 1428.01 123.36 1428 122.629 1428V1408ZM-0.998169 1523C-0.998169 1459.15 54.7038 1408 122.629 1408V1428C64.3209 1428 19.0018 1471.57 19.0018 1523H-0.998169ZM122.629 1638C54.7038 1638 -0.998169 1586.85 -0.998169 1523H19.0018C19.0018 1574.43 64.3209 1618 122.629 1618V1638ZM125.193 1637.98C124.34 1637.99 123.486 1638 122.629 1638V1618C123.36 1618 124.089 1617.99 124.815 1617.98L125.193 1637.98ZM135.004 1627.98V1632.98H115.004V1627.98H135.004Z" fill="white" mask="url(#path-13-inside-2_623_1086)"/>
</g>
<g filter="url(#filter12_i_623_1086)">
<mask id="path-15-inside-3_623_1086" fill="white">
<path fill-rule="evenodd" clip-rule="evenodd" d="M123.004 2480.98C122.214 2480.99 121.423 2481 120.629 2481C55.1132 2481 2.00183 2431.75 2.00183 2371C2.00183 2310.25 55.1132 2261 120.629 2261C121.423 2261 122.214 2261.01 123.004 2261.02V2266.02C122.214 2266.01 121.423 2266 120.629 2266C57.5124 2266 7.00183 2313.36 7.00183 2371C7.00183 2428.64 57.5124 2476 120.629 2476C121.423 2476 122.214 2475.99 123.004 2475.98V2480.98Z"/>
</mask>
<path d="M123.004 2480.98H133.004V2490.8L123.186 2490.98L123.004 2480.98ZM123.004 2261.02L123.186 2251.02L133.004 2251.2V2261.02H123.004ZM123.004 2266.02H133.004V2276.21L122.815 2276.02L123.004 2266.02ZM123.004 2475.98L122.815 2465.98L133.004 2465.79V2475.98H123.004ZM123.186 2490.98C122.336 2490.99 121.483 2491 120.629 2491V2471C121.362 2471 122.093 2470.99 122.822 2470.98L123.186 2490.98ZM120.629 2491C50.3148 2491 -7.99817 2437.97 -7.99817 2371H12.0018C12.0018 2425.53 59.9115 2471 120.629 2471V2491ZM-7.99817 2371C-7.99817 2304.03 50.3148 2251 120.629 2251V2271C59.9115 2271 12.0018 2316.47 12.0018 2371H-7.99817ZM120.629 2251C121.483 2251 122.336 2251.01 123.186 2251.02L122.822 2271.02C122.093 2271.01 121.362 2271 120.629 2271V2251ZM133.004 2261.02V2266.02H113.004V2261.02H133.004ZM120.629 2256C121.486 2256 122.34 2256.01 123.193 2256.02L122.815 2276.02C122.089 2276.01 121.36 2276 120.629 2276V2256ZM-2.99817 2371C-2.99817 2307.15 52.7038 2256 120.629 2256V2276C62.3209 2276 17.0018 2319.57 17.0018 2371H-2.99817ZM120.629 2486C52.7038 2486 -2.99817 2434.85 -2.99817 2371H17.0018C17.0018 2422.43 62.3209 2466 120.629 2466V2486ZM123.193 2485.98C122.34 2485.99 121.486 2486 120.629 2486V2466C121.36 2466 122.089 2465.99 122.815 2465.98L123.193 2485.98ZM133.004 2475.98V2480.98H113.004V2475.98H133.004Z" fill="white" mask="url(#path-15-inside-3_623_1086)"/>
</g>
<g filter="url(#filter13_i_623_1086)">
<mask id="path-17-inside-4_623_1086" fill="white">
<path fill-rule="evenodd" clip-rule="evenodd" d="M122.004 3326.98C121.214 3326.99 120.423 3327 119.629 3327C54.1132 3327 1.00183 3277.75 1.00183 3217C1.00183 3156.25 54.1132 3107 119.629 3107C120.423 3107 121.214 3107.01 122.004 3107.02V3112.02C121.214 3112.01 120.423 3112 119.629 3112C56.5124 3112 6.00183 3159.36 6.00183 3217C6.00183 3274.64 56.5124 3322 119.629 3322C120.423 3322 121.214 3321.99 122.004 3321.98V3326.98Z"/>
</mask>
<path d="M122.004 3326.98H132.004V3336.8L122.186 3336.98L122.004 3326.98ZM122.004 3107.02L122.186 3097.02L132.004 3097.2V3107.02H122.004ZM122.004 3112.02H132.004V3122.21L121.815 3122.02L122.004 3112.02ZM122.004 3321.98L121.815 3311.98L132.004 3311.79V3321.98H122.004ZM122.186 3336.98C121.336 3336.99 120.483 3337 119.629 3337V3317C120.362 3317 121.093 3316.99 121.822 3316.98L122.186 3336.98ZM119.629 3337C49.3148 3337 -8.99817 3283.97 -8.99817 3217H11.0018C11.0018 3271.53 58.9115 3317 119.629 3317V3337ZM-8.99817 3217C-8.99817 3150.03 49.3148 3097 119.629 3097V3117C58.9115 3117 11.0018 3162.47 11.0018 3217H-8.99817ZM119.629 3097C120.483 3097 121.336 3097.01 122.186 3097.02L121.822 3117.02C121.093 3117.01 120.362 3117 119.629 3117V3097ZM132.004 3107.02V3112.02H112.004V3107.02H132.004ZM119.629 3102C120.486 3102 121.34 3102.01 122.193 3102.02L121.815 3122.02C121.089 3122.01 120.36 3122 119.629 3122V3102ZM-3.99817 3217C-3.99817 3153.15 51.7038 3102 119.629 3102V3122C61.3209 3122 16.0018 3165.57 16.0018 3217H-3.99817ZM119.629 3332C51.7038 3332 -3.99817 3280.85 -3.99817 3217H16.0018C16.0018 3268.43 61.3209 3312 119.629 3312V3332ZM122.193 3331.98C121.34 3331.99 120.486 3332 119.629 3332V3312C120.36 3312 121.089 3311.99 121.815 3311.98L122.193 3331.98ZM132.004 3321.98V3326.98H112.004V3321.98H132.004Z" fill="white" mask="url(#path-17-inside-4_623_1086)"/>
</g>
<g filter="url(#filter14_i_623_1086)">
<mask id="path-19-inside-5_623_1086" fill="white">
<path fill-rule="evenodd" clip-rule="evenodd" d="M121.004 4171.98C120.214 4171.99 119.423 4172 118.629 4172C53.1132 4172 0.00183105 4122.75 0.00183105 4062C0.00183105 4001.25 53.1132 3952 118.629 3952C119.423 3952 120.214 3952.01 121.004 3952.02V3957.02C120.214 3957.01 119.423 3957 118.629 3957C55.5124 3957 5.00183 4004.36 5.00183 4062C5.00183 4119.64 55.5124 4167 118.629 4167C119.423 4167 120.214 4166.99 121.004 4166.98V4171.98Z"/>
</mask>
<path d="M121.004 4171.98H131.004V4181.8L121.186 4181.98L121.004 4171.98ZM121.004 3952.02L121.186 3942.02L131.004 3942.2V3952.02H121.004ZM121.004 3957.02H131.004V3967.21L120.815 3967.02L121.004 3957.02ZM121.004 4166.98L120.815 4156.98L131.004 4156.79V4166.98H121.004ZM121.186 4181.98C120.336 4181.99 119.483 4182 118.629 4182V4162C119.362 4162 120.093 4161.99 120.822 4161.98L121.186 4181.98ZM118.629 4182C48.3148 4182 -9.99817 4128.97 -9.99817 4062H10.0018C10.0018 4116.53 57.9115 4162 118.629 4162V4182ZM-9.99817 4062C-9.99817 3995.03 48.3148 3942 118.629 3942V3962C57.9115 3962 10.0018 4007.47 10.0018 4062H-9.99817ZM118.629 3942C119.483 3942 120.336 3942.01 121.186 3942.02L120.822 3962.02C120.093 3962.01 119.362 3962 118.629 3962V3942ZM131.004 3952.02V3957.02H111.004V3952.02H131.004ZM118.629 3947C119.486 3947 120.34 3947.01 121.193 3947.02L120.815 3967.02C120.089 3967.01 119.36 3967 118.629 3967V3947ZM-4.99817 4062C-4.99817 3998.15 50.7038 3947 118.629 3947V3967C60.3209 3967 15.0018 4010.57 15.0018 4062H-4.99817ZM118.629 4177C50.7038 4177 -4.99817 4125.85 -4.99817 4062H15.0018C15.0018 4113.43 60.3209 4157 118.629 4157V4177ZM121.193 4176.98C120.34 4176.99 119.486 4177 118.629 4177V4157C119.36 4157 120.089 4156.99 120.815 4156.98L121.193 4176.98ZM131.004 4166.98V4171.98H111.004V4166.98H131.004Z" fill="white" mask="url(#path-19-inside-5_623_1086)"/>
</g>
<g filter="url(#filter15_i_623_1086)">
<mask id="path-21-inside-6_623_1086" fill="white">
<path fill-rule="evenodd" clip-rule="evenodd" d="M119 1210.98C119.79 1210.99 120.581 1211 121.375 1211C186.891 1211 240.002 1161.75 240.002 1101C240.002 1040.25 186.891 991 121.375 991C120.581 991 119.79 991.007 119 991.022V996.022C119.789 996.007 120.581 996 121.375 996C184.492 996 235.002 1043.36 235.002 1101C235.002 1158.64 184.492 1206 121.375 1206C120.581 1206 119.789 1205.99 119 1205.98V1210.98Z"/>
</mask>
<path d="M119 1210.98H109V1220.8L118.818 1220.98L119 1210.98ZM119 991.022L118.818 981.023L109 981.202V991.022H119ZM119 996.022H109V1006.21L119.189 1006.02L119 996.022ZM119 1205.98L119.189 1195.98L109 1195.79V1205.98H119ZM118.818 1220.98C119.668 1220.99 120.52 1221 121.375 1221V1201C120.642 1201 119.911 1200.99 119.182 1200.98L118.818 1220.98ZM121.375 1221C191.689 1221 250.002 1167.97 250.002 1101H230.002C230.002 1155.53 182.092 1201 121.375 1201V1221ZM250.002 1101C250.002 1034.03 191.689 981 121.375 981V1001C182.092 1001 230.002 1046.47 230.002 1101H250.002ZM121.375 981C120.521 981 119.668 981.008 118.818 981.023L119.182 1001.02C119.911 1001.01 120.642 1001 121.375 1001V981ZM109 991.022V996.022H129V991.022H109ZM121.375 986C120.518 986 119.664 986.008 118.811 986.024L119.189 1006.02C119.915 1006.01 120.644 1006 121.375 1006V986ZM245.002 1101C245.002 1037.15 189.3 986 121.375 986V1006C179.683 1006 225.002 1049.57 225.002 1101H245.002ZM121.375 1216C189.3 1216 245.002 1164.85 245.002 1101H225.002C225.002 1152.43 179.683 1196 121.375 1196V1216ZM118.811 1215.98C119.664 1215.99 120.518 1216 121.375 1216V1196C120.644 1196 119.915 1195.99 119.189 1195.98L118.811 1215.98ZM109 1205.98V1210.98H129V1205.98H109Z" fill="white" mask="url(#path-21-inside-6_623_1086)"/>
</g>
<g filter="url(#filter16_i_623_1086)">
<mask id="path-23-inside-7_623_1086" fill="white">
<path fill-rule="evenodd" clip-rule="evenodd" d="M118 2058.98C118.79 2058.99 119.581 2059 120.375 2059C185.891 2059 239.002 2009.75 239.002 1949C239.002 1888.25 185.891 1839 120.375 1839C119.581 1839 118.79 1839.01 118 1839.02V1844.02C118.789 1844.01 119.581 1844 120.375 1844C183.492 1844 234.002 1891.36 234.002 1949C234.002 2006.64 183.492 2054 120.375 2054C119.581 2054 118.789 2053.99 118 2053.98V2058.98Z"/>
</mask>
<path d="M118 2058.98H108V2068.8L117.818 2068.98L118 2058.98ZM118 1839.02L117.818 1829.02L108 1829.2V1839.02H118ZM118 1844.02H108V1854.21L118.189 1854.02L118 1844.02ZM118 2053.98L118.189 2043.98L108 2043.79V2053.98H118ZM117.818 2068.98C118.668 2068.99 119.52 2069 120.375 2069V2049C119.642 2049 118.911 2048.99 118.182 2048.98L117.818 2068.98ZM120.375 2069C190.689 2069 249.002 2015.97 249.002 1949H229.002C229.002 2003.53 181.092 2049 120.375 2049V2069ZM249.002 1949C249.002 1882.03 190.689 1829 120.375 1829V1849C181.092 1849 229.002 1894.47 229.002 1949H249.002ZM120.375 1829C119.521 1829 118.668 1829.01 117.818 1829.02L118.182 1849.02C118.911 1849.01 119.642 1849 120.375 1849V1829ZM108 1839.02V1844.02H128V1839.02H108ZM120.375 1834C119.518 1834 118.664 1834.01 117.811 1834.02L118.189 1854.02C118.915 1854.01 119.644 1854 120.375 1854V1834ZM244.002 1949C244.002 1885.15 188.3 1834 120.375 1834V1854C178.683 1854 224.002 1897.57 224.002 1949H244.002ZM120.375 2064C188.3 2064 244.002 2012.85 244.002 1949H224.002C224.002 2000.43 178.683 2044 120.375 2044V2064ZM117.811 2063.98C118.664 2063.99 119.518 2064 120.375 2064V2044C119.644 2044 118.915 2043.99 118.189 2043.98L117.811 2063.98ZM108 2053.98V2058.98H128V2053.98H108Z" fill="white" mask="url(#path-23-inside-7_623_1086)"/>
</g>
<g filter="url(#filter17_i_623_1086)">
<mask id="path-25-inside-8_623_1086" fill="white">
<path fill-rule="evenodd" clip-rule="evenodd" d="M116 2904.98C116.79 2904.99 117.581 2905 118.375 2905C183.891 2905 237.002 2855.75 237.002 2795C237.002 2734.25 183.891 2685 118.375 2685C117.581 2685 116.79 2685.01 116 2685.02V2690.02C116.789 2690.01 117.581 2690 118.375 2690C181.492 2690 232.002 2737.36 232.002 2795C232.002 2852.64 181.492 2900 118.375 2900C117.581 2900 116.789 2899.99 116 2899.98V2904.98Z"/>
</mask>
<path d="M116 2904.98H106V2914.8L115.818 2914.98L116 2904.98ZM116 2685.02L115.818 2675.02L106 2675.2V2685.02H116ZM116 2690.02H106V2700.21L116.189 2700.02L116 2690.02ZM116 2899.98L116.189 2889.98L106 2889.79V2899.98H116ZM115.818 2914.98C116.668 2914.99 117.52 2915 118.375 2915V2895C117.642 2895 116.911 2894.99 116.182 2894.98L115.818 2914.98ZM118.375 2915C188.689 2915 247.002 2861.97 247.002 2795H227.002C227.002 2849.53 179.092 2895 118.375 2895V2915ZM247.002 2795C247.002 2728.03 188.689 2675 118.375 2675V2695C179.092 2695 227.002 2740.47 227.002 2795H247.002ZM118.375 2675C117.521 2675 116.668 2675.01 115.818 2675.02L116.182 2695.02C116.911 2695.01 117.642 2695 118.375 2695V2675ZM106 2685.02V2690.02H126V2685.02H106ZM118.375 2680C117.518 2680 116.664 2680.01 115.811 2680.02L116.189 2700.02C116.915 2700.01 117.644 2700 118.375 2700V2680ZM242.002 2795C242.002 2731.15 186.3 2680 118.375 2680V2700C176.683 2700 222.002 2743.57 222.002 2795H242.002ZM118.375 2910C186.3 2910 242.002 2858.85 242.002 2795H222.002C222.002 2846.43 176.683 2890 118.375 2890V2910ZM115.811 2909.98C116.664 2909.99 117.518 2910 118.375 2910V2890C117.644 2890 116.915 2889.99 116.189 2889.98L115.811 2909.98ZM106 2899.98V2904.98H126V2899.98H106Z" fill="white" mask="url(#path-25-inside-8_623_1086)"/>
</g>
<g filter="url(#filter18_i_623_1086)">
<mask id="path-27-inside-9_623_1086" fill="white">
<path fill-rule="evenodd" clip-rule="evenodd" d="M115 3748.98C115.79 3748.99 116.581 3749 117.375 3749C182.891 3749 236.002 3699.75 236.002 3639C236.002 3578.25 182.891 3529 117.375 3529C116.581 3529 115.79 3529.01 115 3529.02V3534.02C115.789 3534.01 116.581 3534 117.375 3534C180.492 3534 231.002 3581.36 231.002 3639C231.002 3696.64 180.492 3744 117.375 3744C116.581 3744 115.789 3743.99 115 3743.98V3748.98Z"/>
</mask>
<path d="M115 3748.98H105V3758.8L114.818 3758.98L115 3748.98ZM115 3529.02L114.818 3519.02L105 3519.2V3529.02H115ZM115 3534.02H105V3544.21L115.189 3544.02L115 3534.02ZM115 3743.98L115.189 3733.98L105 3733.79V3743.98H115ZM114.818 3758.98C115.668 3758.99 116.52 3759 117.375 3759V3739C116.642 3739 115.911 3738.99 115.182 3738.98L114.818 3758.98ZM117.375 3759C187.689 3759 246.002 3705.97 246.002 3639H226.002C226.002 3693.53 178.092 3739 117.375 3739V3759ZM246.002 3639C246.002 3572.03 187.689 3519 117.375 3519V3539C178.092 3539 226.002 3584.47 226.002 3639H246.002ZM117.375 3519C116.521 3519 115.668 3519.01 114.818 3519.02L115.182 3539.02C115.911 3539.01 116.642 3539 117.375 3539V3519ZM105 3529.02V3534.02H125V3529.02H105ZM117.375 3524C116.518 3524 115.664 3524.01 114.811 3524.02L115.189 3544.02C115.915 3544.01 116.644 3544 117.375 3544V3524ZM241.002 3639C241.002 3575.15 185.3 3524 117.375 3524V3544C175.683 3544 221.002 3587.57 221.002 3639H241.002ZM117.375 3754C185.3 3754 241.002 3702.85 241.002 3639H221.002C221.002 3690.43 175.683 3734 117.375 3734V3754ZM114.811 3753.98C115.664 3753.99 116.518 3754 117.375 3754V3734C116.644 3734 115.915 3733.99 115.189 3733.98L114.811 3753.98ZM105 3743.98V3748.98H125V3743.98H105Z" fill="white" mask="url(#path-27-inside-9_623_1086)"/>
</g>
<g filter="url(#filter19_i_623_1086)">
<mask id="path-29-inside-10_623_1086" fill="white">
<path fill-rule="evenodd" clip-rule="evenodd" d="M129.004 790.978C128.214 790.993 127.423 791 126.629 791C61.1132 791 8.00183 741.751 8.00183 681C8.00183 620.249 61.1132 571 126.629 571C127.423 571 128.214 571.007 129.004 571.022V576.022C128.214 576.007 127.423 576 126.629 576C63.5124 576 13.0018 623.359 13.0018 681C13.0018 738.641 63.5124 786 126.629 786C127.423 786 128.214 785.993 129.004 785.978V790.978Z"/>
</mask>
<path d="M129.004 790.978H139.004V800.798L129.186 800.977L129.004 790.978ZM129.004 571.022L129.186 561.023L139.004 561.202V571.022H129.004ZM129.004 576.022H139.004V586.213L128.815 586.021L129.004 576.022ZM129.004 785.978L128.815 775.979L139.004 775.787V785.978H129.004ZM129.186 800.977C128.336 800.992 127.483 801 126.629 801V781C127.362 781 128.093 780.993 128.822 780.98L129.186 800.977ZM126.629 801C56.3148 801 -1.99817 747.972 -1.99817 681H18.0018C18.0018 735.531 65.9115 781 126.629 781V801ZM-1.99817 681C-1.99817 614.028 56.3148 561 126.629 561V581C65.9115 581 18.0018 626.469 18.0018 681H-1.99817ZM126.629 561C127.483 561 128.336 561.008 129.186 561.023L128.822 581.02C128.093 581.007 127.362 581 126.629 581V561ZM139.004 571.022V576.022H119.004V571.022H139.004ZM126.629 566C127.486 566 128.34 566.008 129.193 566.024L128.815 586.021C128.089 586.007 127.36 586 126.629 586V566ZM3.00183 681C3.00183 617.148 58.7038 566 126.629 566V586C68.3209 586 23.0018 629.57 23.0018 681H3.00183ZM126.629 796C58.7038 796 3.00183 744.852 3.00183 681H23.0018C23.0018 732.43 68.3209 776 126.629 776V796ZM129.193 795.976C128.34 795.992 127.486 796 126.629 796V776C127.36 776 128.089 775.993 128.815 775.979L129.193 795.976ZM139.004 785.978V790.978H119.004V785.978H139.004Z" fill="white" mask="url(#path-29-inside-10_623_1086)"/>
</g>
<defs>
<filter id="filter0_i_623_1086" x="119.098" y="0.00512695" width="12.8318" height="580" filterUnits="userSpaceOnUse" color-interpolation-filters="sRGB">
<feFlood flood-opacity="0" result="BackgroundImageFix"/>
<feBlend mode="normal" in="SourceGraphic" in2="BackgroundImageFix" result="shape"/>
<feColorMatrix in="SourceAlpha" type="matrix" values="0 0 0 0 0 0 0 0 0 0 0 0 0 0 0 0 0 0 127 0" result="hardAlpha"/>
<feOffset dy="4"/>
<feGaussianBlur stdDeviation="2"/>
<feComposite in2="hardAlpha" operator="arithmetic" k2="-1" k3="1"/>
<feColorMatrix type="matrix" values="0 0 0 0 0 0 0 0 0 0 0 0 0 0 0 0 0 0 0.25 0"/>
<feBlend mode="normal" in2="shape" result="effect1_innerShadow_623_1086"/>
</filter>
<filter id="filter1_i_623_1086" x="117.912" y="1628" width="10" height="215" filterUnits="userSpaceOnUse" color-interpolation-filters="sRGB">
<feFlood flood-opacity="0" result="BackgroundImageFix"/>
<feBlend mode="normal" in="SourceGraphic" in2="BackgroundImageFix" result="shape"/>
<feColorMatrix in="SourceAlpha" type="matrix" values="0 0 0 0 0 0 0 0 0 0 0 0 0 0 0 0 0 0 127 0" result="hardAlpha"/>
<feOffset dy="4"/>
<feGaussianBlur stdDeviation="2"/>
<feComposite in2="hardAlpha" operator="arithmetic" k2="-1" k3="1"/>
<feColorMatrix type="matrix" values="0 0 0 0 0 0 0 0 0 0 0 0 0 0 0 0 0 0 0.25 0"/>
<feBlend mode="normal" in2="shape" result="effect1_innerShadow_623_1086"/>
</filter>
<filter id="filter2_i_623_1086" x="115.912" y="2476" width="10" height="215" filterUnits="userSpaceOnUse" color-interpolation-filters="sRGB">
<feFlood flood-opacity="0" result="BackgroundImageFix"/>
<feBlend mode="normal" in="SourceGraphic" in2="BackgroundImageFix" result="shape"/>
<feColorMatrix in="SourceAlpha" type="matrix" values="0 0 0 0 0 0 0 0 0 0 0 0 0 0 0 0 0 0 127 0" result="hardAlpha"/>
<feOffset dy="4"/>
<feGaussianBlur stdDeviation="2"/>
<feComposite in2="hardAlpha" operator="arithmetic" k2="-1" k3="1"/>
<feColorMatrix type="matrix" values="0 0 0 0 0 0 0 0 0 0 0 0 0 0 0 0 0 0 0.25 0"/>
<feBlend mode="normal" in2="shape" result="effect1_innerShadow_623_1086"/>
</filter>
<filter id="filter3_i_623_1086" x="114.912" y="3322" width="10" height="215" filterUnits="userSpaceOnUse" color-interpolation-filters="sRGB">
<feFlood flood-opacity="0" result="BackgroundImageFix"/>
<feBlend mode="normal" in="SourceGraphic" in2="BackgroundImageFix" result="shape"/>
<feColorMatrix in="SourceAlpha" type="matrix" values="0 0 0 0 0 0 0 0 0 0 0 0 0 0 0 0 0 0 127 0" result="hardAlpha"/>
<feOffset dy="4"/>
<feGaussianBlur stdDeviation="2"/>
<feComposite in2="hardAlpha" operator="arithmetic" k2="-1" k3="1"/>
<feColorMatrix type="matrix" values="0 0 0 0 0 0 0 0 0 0 0 0 0 0 0 0 0 0 0.25 0"/>
<feBlend mode="normal" in2="shape" result="effect1_innerShadow_623_1086"/>
</filter>
<filter id="filter4_i_623_1086" x="113.912" y="4167" width="10" height="215" filterUnits="userSpaceOnUse" color-interpolation-filters="sRGB">
<feFlood flood-opacity="0" result="BackgroundImageFix"/>
<feBlend mode="normal" in="SourceGraphic" in2="BackgroundImageFix" result="shape"/>
<feColorMatrix in="SourceAlpha" type="matrix" values="0 0 0 0 0 0 0 0 0 0 0 0 0 0 0 0 0 0 127 0" result="hardAlpha"/>
<feOffset dy="4"/>
<feGaussianBlur stdDeviation="2"/>
<feComposite in2="hardAlpha" operator="arithmetic" k2="-1" k3="1"/>
<feColorMatrix type="matrix" values="0 0 0 0 0 0 0 0 0 0 0 0 0 0 0 0 0 0 0.25 0"/>
<feBlend mode="normal" in2="shape" result="effect1_innerShadow_623_1086"/>
</filter>
<filter id="filter5_i_623_1086" x="115.096" y="1206" width="10" height="215" filterUnits="userSpaceOnUse" color-interpolation-filters="sRGB">
<feFlood flood-opacity="0" result="BackgroundImageFix"/>
<feBlend mode="normal" in="SourceGraphic" in2="BackgroundImageFix" result="shape"/>
<feColorMatrix in="SourceAlpha" type="matrix" values="0 0 0 0 0 0 0 0 0 0 0 0 0 0 0 0 0 0 127 0" result="hardAlpha"/>
<feOffset dy="4"/>
<feGaussianBlur stdDeviation="2"/>
<feComposite in2="hardAlpha" operator="arithmetic" k2="-1" k3="1"/>
<feColorMatrix type="matrix" values="0 0 0 0 0 0 0 0 0 0 0 0 0 0 0 0 0 0 0.25 0"/>
<feBlend mode="normal" in2="shape" result="effect1_innerShadow_623_1086"/>
</filter>
<filter id="filter6_i_623_1086" x="114.096" y="2054" width="10" height="215" filterUnits="userSpaceOnUse" color-interpolation-filters="sRGB">
<feFlood flood-opacity="0" result="BackgroundImageFix"/>
<feBlend mode="normal" in="SourceGraphic" in2="BackgroundImageFix" result="shape"/>
<feColorMatrix in="SourceAlpha" type="matrix" values="0 0 0 0 0 0 0 0 0 0 0 0 0 0 0 0 0 0 127 0" result="hardAlpha"/>
<feOffset dy="4"/>
<feGaussianBlur stdDeviation="2"/>
<feComposite in2="hardAlpha" operator="arithmetic" k2="-1" k3="1"/>
<feColorMatrix type="matrix" values="0 0 0 0 0 0 0 0 0 0 0 0 0 0 0 0 0 0 0.25 0"/>
<feBlend mode="normal" in2="shape" result="effect1_innerShadow_623_1086"/>
</filter>
<filter id="filter7_i_623_1086" x="112.096" y="2900" width="10" height="215" filterUnits="userSpaceOnUse" color-interpolation-filters="sRGB">
<feFlood flood-opacity="0" result="BackgroundImageFix"/>
<feBlend mode="normal" in="SourceGraphic" in2="BackgroundImageFix" result="shape"/>
<feColorMatrix in="SourceAlpha" type="matrix" values="0 0 0 0 0 0 0 0 0 0 0 0 0 0 0 0 0 0 127 0" result="hardAlpha"/>
<feOffset dy="4"/>
<feGaussianBlur stdDeviation="2"/>
<feComposite in2="hardAlpha" operator="arithmetic" k2="-1" k3="1"/>
<feColorMatrix type="matrix" values="0 0 0 0 0 0 0 0 0 0 0 0 0 0 0 0 0 0 0.25 0"/>
<feBlend mode="normal" in2="shape" result="effect1_innerShadow_623_1086"/>
</filter>
<filter id="filter8_i_623_1086" x="111.096" y="3744" width="10" height="215" filterUnits="userSpaceOnUse" color-interpolation-filters="sRGB">
<feFlood flood-opacity="0" result="BackgroundImageFix"/>
<feBlend mode="normal" in="SourceGraphic" in2="BackgroundImageFix" result="shape"/>
<feColorMatrix in="SourceAlpha" type="matrix" values="0 0 0 0 0 0 0 0 0 0 0 0 0 0 0 0 0 0 127 0" result="hardAlpha"/>
<feOffset dy="4"/>
<feGaussianBlur stdDeviation="2"/>
<feComposite in2="hardAlpha" operator="arithmetic" k2="-1" k3="1"/>
<feColorMatrix type="matrix" values="0 0 0 0 0 0 0 0 0 0 0 0 0 0 0 0 0 0 0.25 0"/>
<feBlend mode="normal" in2="shape" result="effect1_innerShadow_623_1086"/>
</filter>
<filter id="filter9_i_623_1086" x="118.904" y="786" width="10" height="215" filterUnits="userSpaceOnUse" color-interpolation-filters="sRGB">
<feFlood flood-opacity="0" result="BackgroundImageFix"/>
<feBlend mode="normal" in="SourceGraphic" in2="BackgroundImageFix" result="shape"/>
<feColorMatrix in="SourceAlpha" type="matrix" values="0 0 0 0 0 0 0 0 0 0 0 0 0 0 0 0 0 0 127 0" result="hardAlpha"/>
<feOffset dy="4"/>
<feGaussianBlur stdDeviation="2"/>
<feComposite in2="hardAlpha" operator="arithmetic" k2="-1" k3="1"/>
<feColorMatrix type="matrix" values="0 0 0 0 0 0 0 0 0 0 0 0 0 0 0 0 0 0 0.25 0"/>
<feBlend mode="normal" in2="shape" result="effect1_innerShadow_623_1086"/>
</filter>
<filter id="filter10_i_623_1086" x="122" y="150.006" width="121.002" height="224" filterUnits="userSpaceOnUse" color-interpolation-filters="sRGB">
<feFlood flood-opacity="0" result="BackgroundImageFix"/>
<feBlend mode="normal" in="SourceGraphic" in2="BackgroundImageFix" result="shape"/>
<feColorMatrix in="SourceAlpha" type="matrix" values="0 0 0 0 0 0 0 0 0 0 0 0 0 0 0 0 0 0 127 0" result="hardAlpha"/>
<feOffset dy="4"/>
<feGaussianBlur stdDeviation="2"/>
<feComposite in2="hardAlpha" operator="arithmetic" k2="-1" k3="1"/>
<feColorMatrix type="matrix" values="0 0 0 0 0 0 0 0 0 0 0 0 0 0 0 0 0 0 0.25 0"/>
<feBlend mode="normal" in2="shape" result="effect1_innerShadow_623_1086"/>
</filter>
<filter id="filter11_i_623_1086" x="4.00195" y="1413" width="121.002" height="224" filterUnits="userSpaceOnUse" color-interpolation-filters="sRGB">
<feFlood flood-opacity="0" result="BackgroundImageFix"/>
<feBlend mode="normal" in="SourceGraphic" in2="BackgroundImageFix" result="shape"/>
<feColorMatrix in="SourceAlpha" type="matrix" values="0 0 0 0 0 0 0 0 0 0 0 0 0 0 0 0 0 0 127 0" result="hardAlpha"/>
<feOffset dy="4"/>
<feGaussianBlur stdDeviation="2"/>
<feComposite in2="hardAlpha" operator="arithmetic" k2="-1" k3="1"/>
<feColorMatrix type="matrix" values="0 0 0 0 0 0 0 0 0 0 0 0 0 0 0 0 0 0 0.25 0"/>
<feBlend mode="normal" in2="shape" result="effect1_innerShadow_623_1086"/>
</filter>
<filter id="filter12_i_623_1086" x="2.00195" y="2261" width="121.002" height="224" filterUnits="userSpaceOnUse" color-interpolation-filters="sRGB">
<feFlood flood-opacity="0" result="BackgroundImageFix"/>
<feBlend mode="normal" in="SourceGraphic" in2="BackgroundImageFix" result="shape"/>
<feColorMatrix in="SourceAlpha" type="matrix" values="0 0 0 0 0 0 0 0 0 0 0 0 0 0 0 0 0 0 127 0" result="hardAlpha"/>
<feOffset dy="4"/>
<feGaussianBlur stdDeviation="2"/>
<feComposite in2="hardAlpha" operator="arithmetic" k2="-1" k3="1"/>
<feColorMatrix type="matrix" values="0 0 0 0 0 0 0 0 0 0 0 0 0 0 0 0 0 0 0.25 0"/>
<feBlend mode="normal" in2="shape" result="effect1_innerShadow_623_1086"/>
</filter>
<filter id="filter13_i_623_1086" x="1.00195" y="3107" width="121.002" height="224" filterUnits="userSpaceOnUse" color-interpolation-filters="sRGB">
<feFlood flood-opacity="0" result="BackgroundImageFix"/>
<feBlend mode="normal" in="SourceGraphic" in2="BackgroundImageFix" result="shape"/>
<feColorMatrix in="SourceAlpha" type="matrix" values="0 0 0 0 0 0 0 0 0 0 0 0 0 0 0 0 0 0 127 0" result="hardAlpha"/>
<feOffset dy="4"/>
<feGaussianBlur stdDeviation="2"/>
<feComposite in2="hardAlpha" operator="arithmetic" k2="-1" k3="1"/>
<feColorMatrix type="matrix" values="0 0 0 0 0 0 0 0 0 0 0 0 0 0 0 0 0 0 0.25 0"/>
<feBlend mode="normal" in2="shape" result="effect1_innerShadow_623_1086"/>
</filter>
<filter id="filter14_i_623_1086" x="0.00195312" y="3952" width="121.002" height="224" filterUnits="userSpaceOnUse" color-interpolation-filters="sRGB">
<feFlood flood-opacity="0" result="BackgroundImageFix"/>
<feBlend mode="normal" in="SourceGraphic" in2="BackgroundImageFix" result="shape"/>
<feColorMatrix in="SourceAlpha" type="matrix" values="0 0 0 0 0 0 0 0 0 0 0 0 0 0 0 0 0 0 127 0" result="hardAlpha"/>
<feOffset dy="4"/>
<feGaussianBlur stdDeviation="2"/>
<feComposite in2="hardAlpha" operator="arithmetic" k2="-1" k3="1"/>
<feColorMatrix type="matrix" values="0 0 0 0 0 0 0 0 0 0 0 0 0 0 0 0 0 0 0.25 0"/>
<feBlend mode="normal" in2="shape" result="effect1_innerShadow_623_1086"/>
</filter>
<filter id="filter15_i_623_1086" x="119" y="991" width="121.002" height="224" filterUnits="userSpaceOnUse" color-interpolation-filters="sRGB">
<feFlood flood-opacity="0" result="BackgroundImageFix"/>
<feBlend mode="normal" in="SourceGraphic" in2="BackgroundImageFix" result="shape"/>
<feColorMatrix in="SourceAlpha" type="matrix" values="0 0 0 0 0 0 0 0 0 0 0 0 0 0 0 0 0 0 127 0" result="hardAlpha"/>
<feOffset dy="4"/>
<feGaussianBlur stdDeviation="2"/>
<feComposite in2="hardAlpha" operator="arithmetic" k2="-1" k3="1"/>
<feColorMatrix type="matrix" values="0 0 0 0 0 0 0 0 0 0 0 0 0 0 0 0 0 0 0.25 0"/>
<feBlend mode="normal" in2="shape" result="effect1_innerShadow_623_1086"/>
</filter>
<filter id="filter16_i_623_1086" x="118" y="1839" width="121.002" height="224" filterUnits="userSpaceOnUse" color-interpolation-filters="sRGB">
<feFlood flood-opacity="0" result="BackgroundImageFix"/>
<feBlend mode="normal" in="SourceGraphic" in2="BackgroundImageFix" result="shape"/>
<feColorMatrix in="SourceAlpha" type="matrix" values="0 0 0 0 0 0 0 0 0 0 0 0 0 0 0 0 0 0 127 0" result="hardAlpha"/>
<feOffset dy="4"/>
<feGaussianBlur stdDeviation="2"/>
<feComposite in2="hardAlpha" operator="arithmetic" k2="-1" k3="1"/>
<feColorMatrix type="matrix" values="0 0 0 0 0 0 0 0 0 0 0 0 0 0 0 0 0 0 0.25 0"/>
<feBlend mode="normal" in2="shape" result="effect1_innerShadow_623_1086"/>
</filter>
<filter id="filter17_i_623_1086" x="116" y="2685" width="121.002" height="224" filterUnits="userSpaceOnUse" color-interpolation-filters="sRGB">
<feFlood flood-opacity="0" result="BackgroundImageFix"/>
<feBlend mode="normal" in="SourceGraphic" in2="BackgroundImageFix" result="shape"/>
<feColorMatrix in="SourceAlpha" type="matrix" values="0 0 0 0 0 0 0 0 0 0 0 0 0 0 0 0 0 0 127 0" result="hardAlpha"/>
<feOffset dy="4"/>
<feGaussianBlur stdDeviation="2"/>
<feComposite in2="hardAlpha" operator="arithmetic" k2="-1" k3="1"/>
<feColorMatrix type="matrix" values="0 0 0 0 0 0 0 0 0 0 0 0 0 0 0 0 0 0 0.25 0"/>
<feBlend mode="normal" in2="shape" result="effect1_innerShadow_623_1086"/>
</filter>
<filter id="filter18_i_623_1086" x="115" y="3529" width="121.002" height="224" filterUnits="userSpaceOnUse" color-interpolation-filters="sRGB">
<feFlood flood-opacity="0" result="BackgroundImageFix"/>
<feBlend mode="normal" in="SourceGraphic" in2="BackgroundImageFix" result="shape"/>
<feColorMatrix in="SourceAlpha" type="matrix" values="0 0 0 0 0 0 0 0 0 0 0 0 0 0 0 0 0 0 127 0" result="hardAlpha"/>
<feOffset dy="4"/>
<feGaussianBlur stdDeviation="2"/>
<feComposite in2="hardAlpha" operator="arithmetic" k2="-1" k3="1"/>
<feColorMatrix type="matrix" values="0 0 0 0 0 0 0 0 0 0 0 0 0 0 0 0 0 0 0.25 0"/>
<feBlend mode="normal" in2="shape" result="effect1_innerShadow_623_1086"/>
</filter>
<filter id="filter19_i_623_1086" x="7.00195" y="569" width="122.002" height="222" filterUnits="userSpaceOnUse" color-interpolation-filters="sRGB">
<feFlood flood-opacity="0" result="BackgroundImageFix"/>
<feBlend mode="normal" in="SourceGraphic" in2="BackgroundImageFix" result="shape"/>
<feColorMatrix in="SourceAlpha" type="matrix" values="0 0 0 0 0 0 0 0 0 0 0 0 0 0 0 0 0 0 127 0" result="hardAlpha"/>
<feOffset dx="-1" dy="-2"/>
<feGaussianBlur stdDeviation="2"/>
<feComposite in2="hardAlpha" operator="arithmetic" k2="-1" k3="1"/>
<feColorMatrix type="matrix" values="0 0 0 0 0 0 0 0 0 0 0 0 0 0 0 0 0 0 0.25 0"/>
<feBlend mode="normal" in2="shape" result="effect1_innerShadow_623_1086"/>
</filter>
</defs>
</svg>
