<svg width="24" height="24" viewBox="0 0 24 24" fill="none" xmlns="http://www.w3.org/2000/svg">
<path d="M3.36723 3.36723L2.30792 2.30523C2.05182 2.56068 1.84863 2.86415 1.71 3.19825C1.57136 3.53235 1.5 3.89052 1.5 4.25223C1.5 4.61395 1.57136 4.97211 1.71 5.30622C1.84851 5.64002 2.05145 5.94324 2.30723 6.19855C2.30746 6.19878 2.30769 6.199 2.30792 6.19923L7.86301 11.7522L2.30677 17.3064L2.30657 17.3066C2.05107 17.5621 1.84839 17.8654 1.71011 18.1993C1.57183 18.5331 1.50065 18.8909 1.50065 19.2522C1.50065 19.6136 1.57183 19.9714 1.71011 20.3052C1.84839 20.6391 2.05107 20.9424 2.30657 21.1979C2.56208 21.4534 2.86541 21.6561 3.19925 21.7944C3.53309 21.9326 3.8909 22.0038 4.25223 22.0038C4.61357 22.0038 4.97138 21.9326 5.30522 21.7944C5.63906 21.6561 5.94239 21.4534 6.19789 21.1979L6.1981 21.1977L11.7522 15.6415L17.3064 21.1977L17.3066 21.1979C17.5621 21.4534 17.8654 21.6561 18.1993 21.7944C18.5331 21.9326 18.8909 22.0038 19.2522 22.0038C19.6136 22.0038 19.9714 21.9326 20.3052 21.7944C20.6391 21.6561 20.9424 21.4534 21.1979 21.1979C21.4534 20.9424 21.6561 20.6391 21.7944 20.3052C21.9326 19.9714 22.0038 19.6136 22.0038 19.2522C22.0038 18.8909 21.9326 18.5331 21.7944 18.1993C21.6561 17.8654 21.4534 17.5621 21.1979 17.3066L21.1977 17.3064L15.6415 11.7522L21.1977 6.1981L21.1979 6.19789C21.4534 5.94239 21.6561 5.63906 21.7944 5.30522C21.9326 4.97138 22.0038 4.61357 22.0038 4.25223C22.0038 3.8909 21.9326 3.53309 21.7944 3.19925C21.6561 2.86541 21.4534 2.56208 21.1979 2.30657C20.9424 2.05107 20.6391 1.84839 20.3052 1.71011C19.9714 1.57183 19.6136 1.50065 19.2522 1.50065C18.8909 1.50065 18.5331 1.57183 18.1993 1.71011C17.8654 1.84839 17.5621 2.05107 17.3066 2.30657L17.3064 2.30677L11.7522 7.86301L6.19923 2.30792C6.199 2.30769 6.19878 2.30746 6.19855 2.30723C5.94324 2.05145 5.64002 1.84851 5.30622 1.71C4.97211 1.57136 4.61395 1.5 4.25223 1.5C3.89052 1.5 3.53235 1.57136 3.19825 1.71C2.86415 1.84863 2.56068 2.05182 2.30523 2.30792L3.36723 3.36723ZM3.36723 3.36723C3.25083 3.48335 3.15847 3.62129 3.09545 3.77315C3.03244 3.92501 3 4.08782 3 4.25223C3 4.41665 3.03244 4.57946 3.09545 4.73132C3.15847 4.88318 3.25083 5.02112 3.36723 5.13723V3.36723Z" fill="#FABF13" stroke="#FABF13" stroke-width="3"/>
</svg>
